# xmcd
#
# Track frame offsets:
#	150
#	18963
#	31709
#	44882
#	61790
#	73838
#	87877
#	109249
#	123438
#	140608
#	157730
#	169521
#	187454
#
# Disc length: 2722 seconds
#
# Revision: 1
# Processed by: cddbd v1.5.2PL0 Copyright (c) Steve Scherf et al.
# Submitted via: audiograbber 1.81.03
#
DISCID=b10aa00d
DTITLE=Billy`Blue - Blues In My Room
DYEAR=2006
DGENRE=Blues
TTITLE0=Hard Hearted Woman
TTITLE1=Sugar Sweet
TTITLE2=Big Leg Mama
TTITLE3=I Get Evil Don't You Lie To Me
TTITLE4=I'll Come Running Back
TTITLE5=Let Me Know
TTITLE6=I Got To Find My Baby
TTITLE7=So Afraid Of Losing You
TTITLE8=Baby Come Back Home
TTITLE9=Everybody's In The Mood
TTITLE10=I Gotta Have You
TTITLE11=Don't Need No Horse
TTITLE12=I'm Falling In Love With You
EXTD=
EXTT0=
EXTT1=
EXTT2=
EXTT3=
EXTT4=
EXTT5=
EXTT6=
EXTT7=
EXTT8=
EXTT9=
EXTT10=
EXTT11=
EXTT12=
PLAYORDER=
